<svg width="115" height="28" viewBox="0 0 115 28" fill="none" xmlns="http://www.w3.org/2000/svg">
<path d="M45.7527 5.26971C48.8199 5.29294 51.0274 7.91867 51.0274 10.5909C51.0274 13.2631 48.8199 15.8888 45.7527 15.912H41.8722V22H39.1071V5.26971H45.7527ZM45.7062 13.1236C47.1934 13.1236 48.239 11.8921 48.239 10.5909C48.239 9.26639 47.1934 8.03485 45.7062 8.03485H41.8722V13.1236H45.7062ZM60.7156 10.01H63.4807V22H60.7156V20.3502C59.8326 21.4656 58.6011 22.1394 57.0674 22.1394C54.1861 22.1394 51.8625 19.4207 51.8625 16.005C51.8625 12.5892 54.1861 9.87054 57.0674 9.87054C58.6011 9.87054 59.8791 10.5909 60.7156 11.683V10.01ZM57.6948 19.3975C59.4143 19.3975 60.7156 17.8871 60.7156 16.005C60.7156 14.1228 59.4143 12.6124 57.6948 12.6124C55.9521 12.6124 54.6508 14.1228 54.6508 16.005C54.6508 17.8871 55.9521 19.3975 57.6948 19.3975ZM77.1973 10.01V21.7444C77.1973 25.2299 74.7343 27.7162 71.4812 27.7162C67.8795 27.7162 65.9509 25.2066 65.8114 22.9062H68.6928C68.8787 24.2075 69.8778 25.1369 71.5276 25.1369C73.3401 25.1369 74.4322 23.7195 74.4322 21.8141V20.4432C73.6189 21.4191 72.3177 22.1394 70.9235 22.1394C68.1816 22.1394 66.6944 19.9784 66.6944 17.2365V10.01H69.4596V16.8183C69.4596 18.2357 70.5517 19.3975 71.9459 19.3975C73.3401 19.3975 74.4322 18.2124 74.4322 16.8183V10.01H77.1973ZM87.1379 10.01V12.4266H84.1636V22H81.3984V12.4266H79.4698V10.01H81.3984V9.12697C81.3984 6.75684 82.9088 5.13029 85.1627 5.13029C86.0457 5.13029 86.6034 5.26971 86.9752 5.36265V7.8722C86.7661 7.80249 86.2549 7.6863 85.7669 7.6863C84.8839 7.6863 84.1636 8.01162 84.1636 9.0805V10.01H87.1379ZM92.1077 5.26971V22H89.3426V5.26971H92.1077ZM96.8155 8.49958C95.7699 8.49958 94.9101 7.66307 94.9101 6.59419C94.9101 5.52531 95.7699 4.66556 96.8155 4.66556C97.9309 4.66556 98.7906 5.52531 98.7906 6.59419C98.7906 7.66307 97.8844 8.49958 96.8155 8.49958ZM98.1865 22H95.4213V10.01H98.1865V22ZM101.595 26.7402V10.01H104.36V11.7295C105.197 10.4282 106.452 9.87054 107.985 9.87054C110.797 9.87054 113.213 12.4498 113.213 16.005C113.213 19.5602 110.797 22.1394 107.985 22.1394C106.452 22.1394 105.127 21.3494 104.36 20.2573V26.7402H101.595ZM107.358 12.5892C105.592 12.5892 104.36 14.1228 104.36 16.005C104.36 17.8871 105.592 19.3975 107.358 19.3975C109.124 19.3975 110.448 17.8871 110.448 16.005C110.448 14.1228 109.124 12.5892 107.358 12.5892Z" fill="black"/>
<path d="M4.33203 5.57617C6.05531 5.57623 7.54249 7.51837 8.24023 10.3301C8.49527 9.96341 8.77641 9.60548 9.08301 9.25977C12.4138 5.50418 17.5161 4.58952 20.4785 7.2168C21.4856 8.10997 22.1146 9.29795 22.377 10.624C24.205 7.24101 26.4713 5.1358 27.8652 5.72266C28.6853 6.06792 29.0487 7.28048 28.9775 8.96777C29.5959 6.87045 30.4348 5.53699 31.2529 5.60547C32.5914 5.7181 33.3628 9.53974 32.9756 14.1406C32.5884 18.7409 31.1899 22.3786 29.8516 22.2666C28.5131 22.154 27.7418 18.3333 28.1289 13.7324C28.1475 13.5116 28.1702 13.2932 28.1934 13.0771C27.9732 13.7844 27.7085 14.5135 27.3984 15.25C25.4779 19.8114 22.573 22.9413 20.9102 22.2412C20.055 21.881 19.6963 20.5779 19.8096 18.7764C16.4787 22.5306 11.378 23.4443 8.41602 20.8174C8.04583 20.489 7.72679 20.1208 7.45801 19.7207C6.66956 21.3076 5.56123 22.2959 4.33203 22.2959C1.93956 22.2959 7.5582e-05 18.5535 0 13.9365C0 9.31938 1.93951 5.57617 4.33203 5.57617Z" fill="black"/>
</svg>
